<svg width="512" height="512" viewBox="0 0 512 512" fill="none" xmlns="http://www.w3.org/2000/svg">
<rect width="512" height="512" rx="100" fill="white"/>
<circle cx="256" cy="256" r="206" fill="#5C6BC0"/>
<path d="M332.671 304.869C311.158 315.29 291.034 322.522 272.3 326.565C253.566 330.608 236.991 331.904 222.574 330.451C208.308 328.926 196.393 325.226 186.829 319.351L217.293 304.594C226.352 310.121 238.786 312.238 254.594 310.944C270.403 309.65 290.117 303.283 313.736 291.841C334.045 282.003 347.183 273.493 353.151 266.31C359.268 259.055 358.477 252.778 350.777 247.481C345.98 244.18 340.613 242.34 334.677 241.96C328.765 241.42 320.135 242.714 308.788 245.843C297.592 248.898 281.758 254.496 261.288 262.636C236.377 272.484 215.785 279.129 199.512 282.572C183.262 285.855 170.23 286.766 160.415 285.305C150.624 283.684 141.879 280.224 134.179 274.926C126.857 269.889 123.088 263.945 122.872 257.094C122.806 250.17 127.4 242.395 136.652 233.769C146.056 225.07 160.837 215.838 180.996 206.072C210.331 191.862 236.75 184.022 260.252 182.554C283.753 181.085 303.816 184.834 320.439 193.802L290.877 208.122C281.066 202.959 268.833 200.892 254.18 201.923C239.527 202.953 221.895 208.46 201.285 218.444C181.577 227.99 169.242 236.26 164.279 243.252C159.467 250.171 160.154 255.758 166.339 260.014C170.378 262.793 175.066 264.518 180.4 265.19C185.759 265.702 193.573 264.729 203.843 262.27C214.137 259.651 227.888 254.914 245.097 248.058C273.57 236.781 296.608 229.173 314.212 225.234C331.815 221.295 345.524 220.056 355.339 221.517C365.154 222.978 373.912 226.358 381.612 231.656C395.75 241.383 398.531 252.468 389.954 264.91C381.402 277.193 362.307 290.512 332.671 304.869Z" fill="white"/>
<path fill-rule="evenodd" clip-rule="evenodd" d="M222.351 331.859L222.338 331.858C207.569 330.279 195.126 326.429 185.133 320.291L183.267 319.145L217.331 302.643L218.982 303.65C227.279 308.713 238.786 310.777 254.056 309.527C269.213 308.287 288.531 302.119 312.088 290.708C332.342 280.897 345.182 272.527 350.938 265.598L350.944 265.591C353.882 262.108 355.068 258.966 354.712 256.145C354.359 253.349 352.483 250.764 348.977 248.352C344.534 245.295 339.762 243.711 334.619 243.381L334.562 243.378L334.505 243.372C329.371 242.904 321.299 244.025 309.977 247.147L309.969 247.149C298.939 250.159 283.223 255.71 262.773 263.842L262.768 263.844C237.802 273.712 217.036 280.425 200.51 283.922L200.494 283.925L200.479 283.928C184.09 287.24 170.525 288.255 160.008 286.689L159.975 286.684L159.942 286.679C149.57 284.962 140.378 281.302 132.379 275.798C124.622 270.462 120.658 264.166 120.432 256.998L120.432 256.989L120.432 256.98C120.362 249.694 125.186 241.67 134.555 232.936L134.559 232.932C144.127 224.08 159.092 214.751 179.348 204.939C208.82 190.662 235.641 182.64 259.789 181.131C283.927 179.623 304.757 183.483 322.006 192.788L324.141 193.94L290.969 210.009L289.335 209.149C280.198 204.341 268.753 202.353 254.673 203.343C240.684 204.326 223.456 209.636 202.932 219.577C183.281 229.097 171.298 237.202 166.548 243.891C161.909 250.562 162.846 255.5 168.139 259.142C171.82 261.674 175.978 263.187 180.651 263.785C185.297 264.215 192.564 263.379 202.737 260.944C212.838 258.373 226.448 253.691 243.611 246.853L243.616 246.851C272.132 235.557 295.334 227.884 313.175 223.892C330.868 219.932 345.158 218.556 355.746 220.132C366.173 221.685 375.4 225.272 383.412 230.784C390.773 235.849 395.246 241.32 396.715 247.177C398.181 253.021 396.633 259.151 392.228 265.541L392.225 265.545C383.472 278.116 364.059 291.596 334.318 306.002C312.689 316.48 292.353 323.803 273.311 327.913C254.347 332.005 237.339 333.369 222.363 331.86L222.351 331.859ZM203.843 262.27C193.573 264.729 185.759 265.702 180.4 265.19C175.065 264.518 170.378 262.793 166.339 260.014C160.153 255.758 159.467 250.171 164.279 243.252C169.242 236.26 181.577 227.99 201.285 218.444C221.895 208.46 239.527 202.953 254.18 201.923C268.833 200.892 281.066 202.959 290.877 208.122L320.439 193.802C319.805 193.46 319.166 193.125 318.522 192.798C302.28 184.556 282.857 181.141 260.252 182.554C236.75 184.022 210.331 191.862 180.995 206.072C160.837 215.838 146.055 225.07 136.652 233.769C127.399 242.395 122.806 250.17 122.872 257.094C123.088 263.945 126.857 269.889 134.179 274.926C141.879 280.224 150.624 283.684 160.415 285.305C170.23 286.766 183.262 285.855 199.512 282.572C215.785 279.129 236.377 272.484 261.288 262.636C281.758 254.496 297.592 248.898 308.788 245.843C320.135 242.714 328.765 241.42 334.677 241.96C340.613 242.34 345.98 244.18 350.777 247.481C358.477 252.778 359.268 259.055 353.151 266.31C347.183 273.493 334.045 282.003 313.735 291.841C290.116 303.283 270.403 309.65 254.594 310.944C238.786 312.238 226.352 310.121 217.293 304.594L186.829 319.351C187.418 319.713 188.017 320.067 188.624 320.413C197.871 325.674 209.188 329.02 222.574 330.451C236.991 331.904 253.566 330.608 272.3 326.565C291.034 322.522 311.158 315.29 332.671 304.869C362.307 290.512 381.402 277.193 389.954 264.91C398.531 252.468 395.75 241.383 381.612 231.656C373.911 226.358 365.154 222.978 355.339 221.517C345.524 220.056 331.815 221.295 314.211 225.234C296.608 229.173 273.57 236.781 245.097 248.058C227.888 254.914 214.137 259.651 203.843 262.27Z" fill="white"/>
</svg>
