<svg width="512" height="512" viewBox="0 0 512 512" fill="none" xmlns="http://www.w3.org/2000/svg">
<rect width="512" height="512" rx="100" fill="white"/>
<g filter="url(#filter0_d_27_6)">
<circle cx="256" cy="256" r="206" fill="#5C6BC0"/>
<path d="M222.456 331.154L222.469 331.156C237.165 332.636 253.957 331.307 272.806 327.239C291.694 323.163 311.923 315.885 333.495 305.436C363.183 291.054 382.437 277.654 391.09 265.228L391.091 265.225C395.438 258.92 396.936 252.914 395.508 247.221C394.078 241.521 389.727 236.184 382.512 231.22C374.656 225.815 365.664 222.332 355.542 220.825C345.341 219.306 331.342 220.613 313.693 224.563C295.971 228.529 272.851 236.169 244.356 247.455L244.354 247.455C227.168 254.303 213.487 259.012 203.29 261.607C193.067 264.054 185.527 264.959 180.526 264.487C175.522 263.853 171.099 262.234 167.239 259.578C161.5 255.629 160.688 250.367 165.413 243.571C170.27 236.731 182.429 228.544 202.108 219.011C222.675 209.048 240.105 203.64 254.426 202.633C268.793 201.623 280.632 203.65 290.106 208.635L290.923 209.065L291.701 208.688L321.263 194.368L322.29 193.871L321.222 193.295C304.286 184.159 283.84 180.354 260.021 181.842C236.196 183.331 209.576 191.262 180.172 205.506C159.964 215.294 145.091 224.575 135.606 233.35L135.604 233.352C126.293 242.032 121.584 249.932 121.652 257.037L121.652 257.037L121.652 257.046C121.873 264.056 125.74 270.176 133.279 275.362C141.129 280.763 150.097 284.323 160.179 285.992L160.195 285.995L160.212 285.997C170.378 287.511 183.676 286.548 199.995 283.25L199.996 283.25L200.011 283.247C216.411 279.777 237.09 273.098 262.028 263.24L262.031 263.239C282.491 255.103 298.265 249.529 309.379 246.496L309.383 246.495C320.717 243.369 329.068 242.162 334.591 242.666L334.62 242.669L334.648 242.671C340.188 243.025 345.257 244.738 349.877 247.917C353.555 250.447 355.555 253.186 355.929 256.153C356.304 259.133 355.046 262.395 352.047 265.951L352.045 265.954C346.183 273.01 333.193 281.45 312.912 291.275C289.324 302.701 269.808 308.969 254.325 310.236C238.786 311.508 226.816 309.417 218.137 304.122L217.312 303.619L216.469 304.027L186.005 318.784L185.048 319.248L185.981 319.821C195.759 325.827 207.939 329.602 222.456 331.154Z" fill="white" stroke="white" stroke-width="2"/>
</g>
<defs>
<filter id="filter0_d_27_6" x="30" y="34" width="452" height="452" filterUnits="userSpaceOnUse" color-interpolation-filters="sRGB">
<feFlood flood-opacity="0" result="BackgroundImageFix"/>
<feColorMatrix in="SourceAlpha" type="matrix" values="0 0 0 0 0 0 0 0 0 0 0 0 0 0 0 0 0 0 127 0" result="hardAlpha"/>
<feOffset dy="4"/>
<feGaussianBlur stdDeviation="10"/>
<feComposite in2="hardAlpha" operator="out"/>
<feColorMatrix type="matrix" values="0 0 0 0 0.360784 0 0 0 0 0.419608 0 0 0 0 0.752941 0 0 0 0.6 0"/>
<feBlend mode="normal" in2="BackgroundImageFix" result="effect1_dropShadow_27_6"/>
<feBlend mode="normal" in="SourceGraphic" in2="effect1_dropShadow_27_6" result="shape"/>
</filter>
</defs>
</svg>
