<svg width="412" height="412" viewBox="0 0 412 412" fill="none" xmlns="http://www.w3.org/2000/svg">
<circle cx="206" cy="206" r="194" stroke="white" stroke-width="24"/>
<path d="M172.456 281.154L172.469 281.156C187.165 282.636 203.956 281.307 222.806 277.239C241.694 273.163 261.923 265.885 283.494 255.436C313.183 241.054 332.437 227.654 341.09 215.228L341.091 215.225C345.438 208.92 346.936 202.914 345.508 197.221C344.078 191.521 339.727 186.184 332.512 181.22C324.656 175.815 315.663 172.332 305.542 170.825C295.341 169.306 281.342 170.613 263.693 174.563C245.971 178.529 222.851 186.169 194.356 197.455L194.354 197.455C177.168 204.303 163.487 209.012 153.29 211.607C143.067 214.054 135.527 214.959 130.526 214.487C125.522 213.853 121.099 212.234 117.239 209.578C111.5 205.629 110.688 200.367 115.413 193.571C120.27 186.731 132.429 178.544 152.108 169.011C172.675 159.048 190.105 153.64 204.426 152.633C218.793 151.623 230.632 153.65 240.106 158.635L240.923 159.065L241.701 158.688L271.262 144.368L272.29 143.871L271.222 143.295C254.286 134.159 233.84 130.354 210.02 131.842C186.196 133.331 159.575 141.262 130.172 155.506C109.964 165.294 95.0913 174.575 85.6054 183.35L85.6034 183.352C76.2924 192.032 71.5841 199.932 71.6516 207.037L71.6515 207.037L71.6518 207.046C71.8731 214.056 75.7394 220.176 83.2785 225.362C91.1284 230.763 100.097 234.323 110.178 235.992L110.195 235.995L110.212 235.997C120.378 237.511 133.676 236.548 149.995 233.25L149.995 233.25L150.011 233.247C166.411 229.777 187.09 223.098 212.028 213.24L212.03 213.239C232.491 205.103 248.265 199.529 259.379 196.496L259.383 196.495C270.717 193.369 279.068 192.162 284.591 192.666L284.619 192.669L284.648 192.671C290.188 193.025 295.257 194.738 299.877 197.917C303.555 200.447 305.555 203.186 305.929 206.153C306.304 209.133 305.045 212.395 302.047 215.951L302.044 215.954C296.183 223.01 283.193 231.45 262.912 241.275C239.324 252.701 219.808 258.969 204.325 260.236C188.786 261.508 176.816 259.417 168.137 254.122L167.312 253.619L166.469 254.027L136.005 268.784L135.048 269.248L135.981 269.821C145.759 275.827 157.939 279.602 172.456 281.154Z" fill="white" stroke="white" stroke-width="2"/>
</svg>
