<svg width="412" height="412" viewBox="0 0 412 412" fill="none" xmlns="http://www.w3.org/2000/svg">
<path fill-rule="evenodd" clip-rule="evenodd" d="M206 388C306.516 388 388 306.516 388 206C388 105.484 306.516 24 206 24C105.484 24 24 105.484 24 206C24 306.516 105.484 388 206 388ZM206 412C319.771 412 412 319.771 412 206C412 92.2293 319.771 0 206 0C92.2293 0 0 92.2293 0 206C0 319.771 92.2293 412 206 412Z" fill="white"/>
<path d="M282.671 254.869C261.158 265.29 241.034 272.522 222.3 276.565C203.566 280.608 186.991 281.904 172.574 280.451C158.308 278.926 146.393 275.226 136.829 269.351L167.293 254.594C176.352 260.121 188.786 262.238 204.594 260.944C220.403 259.65 240.116 253.283 263.735 241.841C284.045 232.003 297.183 223.493 303.151 216.31C309.268 209.055 308.477 202.778 300.777 197.481C295.98 194.18 290.613 192.34 284.677 191.96C278.765 191.42 270.135 192.714 258.788 195.843C247.592 198.898 231.758 204.496 211.288 212.636C186.377 222.484 165.785 229.129 149.512 232.572C133.262 235.855 120.23 236.766 110.415 235.305C100.624 233.684 91.8788 230.224 84.1785 224.926C76.8569 219.889 73.088 213.945 72.8717 207.094C72.8059 200.17 77.3994 192.395 86.6522 183.769C96.0555 175.07 110.837 165.838 130.995 156.072C160.331 141.862 186.75 134.022 210.252 132.554C233.753 131.085 253.816 134.834 270.439 143.802L240.877 158.122C231.066 152.959 218.833 150.892 204.18 151.923C189.526 152.953 171.895 158.46 151.285 168.444C131.577 177.99 119.242 186.26 114.279 193.252C109.467 200.171 110.153 205.758 116.339 210.014C120.378 212.793 125.065 214.518 130.4 215.19C135.759 215.702 143.573 214.729 153.843 212.27C164.137 209.651 177.888 204.914 195.097 198.058C223.57 186.781 246.608 179.173 264.211 175.234C281.815 171.295 295.524 170.056 305.339 171.517C315.154 172.978 323.911 176.358 331.612 181.656C345.75 191.383 348.531 202.468 339.954 214.91C331.402 227.193 312.307 240.512 282.671 254.869Z" fill="white"/>
<path fill-rule="evenodd" clip-rule="evenodd" d="M172.351 281.859L172.338 281.858C157.569 280.279 145.126 276.429 135.133 270.291L133.267 269.145L167.332 252.643L168.982 253.65C177.28 258.713 188.786 260.777 204.057 259.527C219.213 258.287 238.531 252.119 262.088 240.708C282.342 230.897 295.182 222.527 300.939 215.598L300.944 215.591C303.882 212.108 305.068 208.966 304.712 206.145C304.36 203.349 302.483 200.764 298.977 198.352C294.534 195.295 289.762 193.711 284.619 193.381L284.562 193.378L284.505 193.372C279.372 192.904 271.299 194.025 259.977 197.147L259.97 197.149C248.939 200.159 233.223 205.71 212.773 213.842L212.768 213.844C187.802 223.712 167.036 230.425 150.51 233.922L150.495 233.925L150.479 233.928C134.091 237.24 120.525 238.255 110.008 236.689L109.975 236.684L109.942 236.679C99.5697 234.962 90.3781 231.302 82.3787 225.798C74.6221 220.462 70.6584 214.166 70.4321 206.998L70.4318 206.989L70.4317 206.98C70.3624 199.694 75.1856 191.67 84.5547 182.936L84.5587 182.932C94.1273 174.08 109.092 164.751 129.348 154.939C158.82 140.662 185.642 132.64 209.79 131.131C233.927 129.623 254.757 133.483 272.006 142.788L274.141 143.94L240.97 160.009L239.335 159.149C230.198 154.341 218.753 152.353 204.673 153.343C190.684 154.326 173.456 159.636 152.932 169.577C133.281 179.097 121.298 187.202 116.548 193.891C111.909 200.562 112.846 205.5 118.139 209.142C121.82 211.674 125.978 213.187 130.651 213.785C135.297 214.215 142.564 213.379 152.737 210.944C162.838 208.373 176.448 203.691 193.611 196.853L193.616 196.851C222.132 185.557 245.334 177.884 263.175 173.892C280.868 169.932 295.158 168.556 305.746 170.132C316.173 171.685 325.401 175.272 333.412 180.784C340.774 185.849 345.246 191.32 346.715 197.177C348.181 203.021 346.633 209.151 342.228 215.541L342.225 215.545C333.472 228.116 314.059 241.596 284.318 256.002C262.689 266.48 242.353 273.803 223.312 277.913C204.347 282.005 187.339 283.369 172.363 281.86L172.351 281.859ZM153.843 212.27C143.573 214.729 135.759 215.702 130.4 215.19C125.066 214.518 120.379 212.793 116.339 210.014C110.154 205.758 109.467 200.171 114.279 193.252C119.242 186.26 131.577 177.99 151.285 168.444C171.895 158.46 189.527 152.953 204.18 151.923C218.833 150.892 231.066 152.959 240.877 158.122L270.439 143.802C269.805 143.46 269.166 143.125 268.522 142.798C252.28 134.556 232.857 131.141 210.252 132.554C186.75 134.022 160.331 141.862 130.996 156.072C110.837 165.838 96.0556 175.07 86.6523 183.769C77.3995 192.395 72.806 200.17 72.8719 207.094C73.0882 213.945 76.8571 219.889 84.1787 224.926C91.8789 230.224 100.624 233.684 110.415 235.305C120.23 236.766 133.262 235.855 149.512 232.572C165.785 229.129 186.377 222.484 211.288 212.636C231.758 204.496 247.592 198.898 258.788 195.843C270.135 192.714 278.765 191.42 284.677 191.96C290.613 192.34 295.98 194.18 300.777 197.481C308.477 202.778 309.268 209.055 303.151 216.31C297.183 223.493 284.045 232.003 263.736 241.841C240.117 253.283 220.403 259.65 204.594 260.944C188.786 262.238 176.352 260.121 167.293 254.594L136.829 269.351C137.418 269.713 138.017 270.067 138.625 270.413C147.871 275.674 159.188 279.02 172.574 280.451C186.991 281.904 203.566 280.608 222.3 276.565C241.034 272.522 261.158 265.29 282.671 254.869C312.307 240.512 331.402 227.193 339.954 214.91C348.531 202.468 345.75 191.383 331.612 181.656C323.912 176.358 315.154 172.978 305.339 171.517C295.524 170.056 281.815 171.295 264.212 175.234C246.608 179.173 223.57 186.781 195.097 198.058C177.888 204.914 164.137 209.651 153.843 212.27Z" fill="white"/>
</svg>
