<svg width="872" height="872" viewBox="0 0 872 872" fill="none" xmlns="http://www.w3.org/2000/svg">
<circle cx="436" cy="436" r="411" stroke="white" stroke-width="50"/>
<path d="M365.136 594.28L365.149 594.281C395.941 597.383 431.239 594.607 471.005 586.025C510.81 577.435 553.507 562.082 599.098 539.998C661.876 509.587 702.449 481.316 720.65 455.176L720.652 455.174C729.786 441.922 732.902 429.349 729.922 417.467C726.94 405.58 717.866 394.434 702.758 384.039C686.305 372.719 667.534 365.463 646.455 362.324C625.295 359.173 595.989 361.865 558.687 370.212C521.31 378.576 472.468 394.711 412.183 418.587L412.181 418.588C375.781 433.09 346.747 443.089 325.057 448.607C303.367 453.8 287.102 455.791 276.118 454.748C265.158 453.363 255.502 449.818 247.132 444.059C234.487 435.359 232.908 423.858 243.007 409.337C253.404 394.691 279.335 377.271 321.018 357.079C364.597 335.969 401.712 324.412 432.394 322.255C463.121 320.094 488.618 324.429 509.047 335.179L509.864 335.609L510.642 335.232L573.209 304.924L574.236 304.426L573.168 303.85C537.673 284.702 494.827 276.711 444.767 279.839C394.703 282.968 338.586 299.651 276.429 329.761C233.714 350.453 202.338 370.041 182.353 388.529L182.351 388.531C162.709 406.842 152.872 423.423 153.013 438.258L153.013 438.258L153.014 438.267C153.476 452.926 161.551 465.683 177.264 476.494C193.712 487.809 212.445 495.231 233.458 498.711L233.474 498.713L233.491 498.716C254.615 501.861 282.464 499.881 316.926 492.918L316.941 492.914C351.511 485.6 395.181 471.502 447.932 450.649L447.935 450.648C491.25 433.424 524.702 421.6 548.317 415.155L548.321 415.154C572.324 408.535 590.31 405.883 602.434 406.99L602.463 406.993L602.491 406.994C614.659 407.774 625.72 411.541 635.696 418.404C643.672 423.892 648.042 429.862 648.858 436.333C649.676 442.817 646.93 449.856 640.516 457.462L640.514 457.466C627.989 472.541 600.331 490.483 557.374 511.292C507.415 535.492 465.888 548.87 432.756 551.581C399.566 554.298 373.714 549.844 354.92 538.378L354.095 537.874L353.252 538.283L288.775 569.516L287.818 569.98L288.751 570.553C309.208 583.118 334.69 591.024 365.136 594.28Z" fill="white" stroke="white" stroke-width="2"/>
</svg>
